{"accessors":[{"bufferView":3,"componentType":5126,"count":1651,"max":[9.207913398742676,33.158260345458984,11.519235610961914],"min":[-9.316681861877441,-7.171645164489746,-16.718305587768555],"type":"VEC3"},{"bufferView":3,"byteOffset":19812,"componentType":5126,"count":1651,"max":[0.9997453689575195,0.9999572038650513,0.9961540102958679],"min":[-0.9999328851699829,-0.9999988079071045,-0.9940590858459473],"type":"VEC3"},{"bufferView":2,"componentType":5126,"count":1651,"max":[0.9233139753341675,0.9545660018920898],"min":[0.13542599976062775,0.2454729974269867],"type":"VEC2"},{"bufferView":1,"componentType":5125,"count":2085,"type":"SCALAR"},{"bufferView":5,"componentType":5126,"count":3,"max":[1,0,0,0,0,1,1,0,0,0,1,0,0,0,0,1],"min":[1,0,0,0,0,0,0,0,0,-1,0,0,0,0,0,1],"type":"MAT4"},{"bufferView":0,"componentType":5123,"count":1651,"type":"VEC4"},{"bufferView":4,"componentType":5126,"count":1651,"max":[1,0,0,0],"min":[1,0,0,0],"type":"VEC4"}],"asset":{"extras":{"author":"GhostSynth (https://sketchfab.com/Kennedy3D)","license":"SKETCHFAB Standard (https://sketchfab.com/licenses)","source":"https://sketchfab.com/3d-models/ugly-skibidi-plush-f7d357ed77144a1cb21d8587d49396c8","title":"Ugly Skibidi Plush"},"generator":"Sketchfab-16.28.0","version":"2.0"},"bufferViews":[{"buffer":0,"byteLength":13208,"byteStride":8,"name":"shortBufferViews","target":34962},{"buffer":0,"byteLength":8340,"byteOffset":13208,"name":"floatBufferViews","target":34963},{"buffer":0,"byteLength":13208,"byteOffset":21548,"byteStride":8,"name":"floatBufferViews","target":34962},{"buffer":0,"byteLength":39624,"byteOffset":34756,"byteStride":12,"name":"floatBufferViews","target":34962},{"buffer":0,"byteLength":26416,"byteOffset":74380,"byteStride":16,"name":"floatBufferViews","target":34962},{"buffer":0,"byteLength":192,"byteOffset":100796,"name":"floatBufferViews"}],"buffers":[{"byteLength":100988,"uri":"data:application/octet-stream;base64,"}],"images":[{"uri":"data:application/octet-stream;base64,"}],"materials":[{"doubleSided":true,"name":"skibidiplush","pbrMetallicRoughness":{"baseColorTexture":{"index":0},"metallicFactor":0,"roughnessFactor":0.5}}],"meshes":[{"name":"Object_0","primitives":[{"attributes":{"JOINTS_0":5,"NORMAL":1,"POSITION":0,"TEXCOORD_0":2,"WEIGHTS_0":6},"indices":3,"material":0,"mode":4}]}],"nodes":[{"children":[1],"matrix":[0.021384811028838158,0,0,0,0,4.748381916294821e-18,-0.021384811028838158,0,0,0.021384811028838158,4.748381916294821e-18,0,0,0,0,1],"name":"Sketchfab_model"},{"children":[2],"name":"root"},{"children":[3],"matrix":[1,0,0,0,0,2.220446049250313e-16,1,0,0,-1,2.220446049250313e-16,0,0,0,0,1],"name":"GLTF_SceneRootNode"},{"children":[4],"name":"Skibidi_skeleton_3"},{"children":[5,7,6],"name":"GLTF_created_0"},{"children":[8,9],"name":"GLTF_created_0_rootJoint"},{"name":"Skibidi_2"},{"mesh":0,"name":"Object_7","skin":0},{"name":"blender_implicit_0","rotation":[-0.7071068286895752,0,0,0.7071068286895752]},{"name":"Bone_1","rotation":[-1.8225779285785393e-7,0,0,1]}],"samplers":[{"magFilter":9729,"minFilter":9987,"wrapS":10497,"wrapT":10497}],"scene":0,"scenes":[{"name":"Sketchfab_Scene","nodes":[0]}],"skins":[{"inverseBindMatrices":4,"joints":[5,8,9],"skeleton":5}],"textures":[{"sampler":0,"source":0}]}